<?xml version="1.0" standalone="no"?>
<!DOCTYPE svg PUBLIC "-//W3C//DTD SVG 20010904//EN"
 "http://www.w3.org/TR/2001/REC-SVG-20010904/DTD/svg10.dtd">
<svg version="1.0" xmlns="http://www.w3.org/2000/svg"
 width="128.000000pt" height="128.000000pt" viewBox="0 0 128.000000 128.000000"
 preserveAspectRatio="xMidYMid meet">
<metadata>
Created by potrace 1.11, written by Peter Selinger 2001-2013
</metadata>
<g transform="translate(0.000000,128.000000) scale(0.100000,-0.100000)"
fill="#000000" stroke="none">
<path d="M240 1013 l0 -268 124 -207 124 -207 -66 -55 -67 -55 -5 62 -5 62
-85 3 c-46 2 -90 8 -97 14 -10 8 -13 83 -13 345 0 335 4 373 35 373 11 0 15
13 15 51 l0 52 -36 -6 c-20 -4 -48 -17 -61 -29 -53 -49 -53 -51 -53 -433 0
-396 1 -406 65 -445 18 -11 53 -23 79 -26 l46 -7 0 -118 c0 -66 2 -119 5 -119
3 0 70 54 149 119 l142 120 295 3 c285 3 295 4 330 26 68 42 69 48 69 447 0
384 0 384 -55 435 l-27 25 -301 5 -302 5 -3 48 -3 47 -150 0 -149 0 0 -267z
m880 48 c6 -12 10 -124 10 -295 l0 -276 -365 0 c-201 0 -365 2 -365 5 0 2 32
56 70 120 l70 116 0 174 0 175 285 0 c271 0 285 -1 295 -19z m-665 -295 l35
-15 -36 -60 c-49 -82 -70 -82 -119 0 -21 33 -36 62 -34 63 11 9 68 25 92 25
15 1 43 -6 62 -13z"/>
</g>
</svg>
